<?xml version="1.0" standalone="no"?>
<!DOCTYPE svg PUBLIC "-//W3C//DTD SVG 20010904//EN"
 "http://www.w3.org/TR/2001/REC-SVG-20010904/DTD/svg10.dtd">
<svg version="1.0" xmlns="http://www.w3.org/2000/svg"
 width="360.000000pt" height="313.000000pt" viewBox="0 0 360.000000 313.000000"
 preserveAspectRatio="xMidYMid meet">
<metadata>
Created by potrace 1.16, written by Peter Selinger 2001-2019
</metadata>
<g transform="translate(0.000000,313.000000) scale(0.100000,-0.100000)"
fill="#000000" stroke="none">
<path d="M1371 3104 c-76 -20 -147 -62 -187 -108 -40 -46 -43 -61 -11 -49 41
15 179 9 212 -10 l30 -16 -35 7 c-72 15 -145 7 -203 -22 -204 -99 -191 -347
26 -510 l38 -29 -11 27 c-5 15 -10 48 -9 74 l0 47 14 -43 c7 -23 20 -54 29
-67 13 -20 16 -56 17 -187 l1 -163 24 185 c13 102 23 193 24 202 0 12 16 20
56 29 81 18 104 7 128 -61 24 -69 33 -214 16 -264 -17 -54 -79 -96 -140 -96
-53 0 -110 -17 -110 -32 0 -6 6 -5 15 2 20 17 188 15 240 -2 82 -28 42 -64
-52 -47 -60 11 -152 6 -183 -11 -15 -8 -25 -5 -46 15 -30 28 -74 43 -151 52
-51 6 -54 4 -87 -30 -55 -59 -67 -146 -30 -219 l13 -26 -67 -12 c-192 -33
-350 -182 -392 -371 -19 -86 -9 -220 23 -296 l26 -63 -25 0 c-14 0 -44 8 -67
19 -73 32 -112 35 -139 9 -13 -13 -17 -17 -8 -10 9 6 25 12 36 11 14 0 15 -2
4 -6 -30 -11 -50 -36 -57 -72 -6 -34 -7 -35 -15 -11 -5 18 -6 12 -3 -17 l5
-43 -45 0 c-41 0 -45 -2 -45 -24 0 -26 -17 -24 385 -47 116 -7 214 -16 219
-20 5 -4 0 -6 -10 -4 -10 2 -171 9 -357 16 -256 9 -341 9 -349 1 -7 -7 -20
-12 -31 -12 -10 0 -32 -13 -48 -29 -23 -24 -29 -38 -29 -74 0 -78 59 -124 121
-93 33 16 32 17 48 -45 l13 -46 119 -10 c66 -6 123 -13 126 -17 3 -3 0 -12 -7
-21 -11 -13 -10 -14 5 -9 12 5 6 -10 -20 -50 -45 -67 -58 -74 -21 -11 15 25
25 45 22 45 -5 0 -206 -287 -212 -305 -3 -7 32 -36 84 -68 l90 -57 374 0 c462
0 590 6 584 29 -3 9 -6 41 -8 71 l-3 55 59 3 c52 3 62 0 86 -23 54 -51 130
-48 189 9 19 18 38 26 64 26 33 0 37 3 37 25 0 25 0 25 -98 25 -162 0 -311 12
-307 24 2 6 6 24 9 39 l7 28 196 -1 c181 -2 198 0 203 16 4 10 9 -25 13 -78 6
-106 29 -173 74 -220 23 -24 35 -28 84 -28 41 0 63 5 82 20 31 25 74 112 83
169 9 57 24 62 24 7 0 -54 40 -150 68 -165 12 -6 35 -11 52 -11 42 0 74 36 96
112 l18 60 12 -43 c14 -58 39 -105 59 -113 53 -20 106 16 127 87 l12 39 13
-38 c40 -115 121 -90 152 49 6 30 19 58 27 61 18 7 18 42 0 49 -8 3 -15 28
-19 63 -7 65 -34 109 -66 108 -26 -1 -27 12 -2 26 40 21 74 -18 87 -99 6 -38
9 -41 39 -41 32 0 34 2 52 63 l18 62 50 5 c41 4 51 9 53 25 3 20 -11 22 -385
59 -213 20 -412 40 -440 43 l-53 6 -6 -33 c-6 -27 -9 -29 -16 -15 -7 11 -6 33
2 63 16 66 40 211 40 250 0 17 5 32 11 32 6 0 89 -18 183 -40 94 -22 248 -58
341 -79 l170 -38 3 24 c2 14 2 26 0 27 -2 1 -307 90 -678 198 l-675 195 -6 84
c-4 46 -15 110 -26 142 -18 51 -18 57 -4 51 9 -3 61 -23 116 -44 55 -21 282
-108 505 -195 223 -86 452 -175 510 -197 58 -22 128 -49 155 -60 38 -15 46
-16 35 -4 -8 8 -244 109 -525 224 -783 323 -848 351 -875 377 -13 14 -20 25
-14 25 5 0 246 -97 534 -215 498 -204 660 -266 420 -159 -60 27 -110 54 -110
61 0 7 2 13 5 13 3 0 55 -25 116 -56 61 -30 113 -53 116 -50 14 13 -13 37
-116 99 -61 38 -111 75 -111 83 0 8 2 14 4 14 4 0 124 -66 189 -104 26 -15 47
-24 47 -18 0 5 -49 40 -110 76 -99 61 -133 86 -115 86 4 0 55 -29 115 -64 87
-51 110 -61 114 -49 4 9 -1 21 -10 28 -25 18 -11 105 17 105 18 0 19 -5 15
-67 -18 -231 -17 -222 -34 -217 -14 5 -15 4 -2 -4 33 -21 57 -23 56 -5 -2 48
17 262 24 274 16 25 18 4 9 -91 -4 -52 -11 -121 -14 -152 l-5 -58 35 -14 c19
-8 35 -21 35 -28 0 -8 35 -24 88 -40 118 -36 153 -61 174 -123 9 -28 17 -71
18 -96 l0 -46 50 -7 c57 -8 80 -32 80 -83 0 -18 5 -33 10 -33 6 0 10 8 10 18
0 9 4 55 10 102 5 47 12 121 16 165 3 44 10 112 14 150 4 45 3 72 -3 77 -26
16 -212 41 -319 41 -65 1 -118 5 -118 9 0 12 230 10 313 -3 118 -18 176 -36
240 -77 94 -59 96 -59 37 -4 -50 46 -124 92 -173 107 -15 4 -18 13 -15 42 3
33 0 38 -19 41 -19 3 -23 -3 -29 -38 -5 -27 -11 -39 -19 -36 -7 2 -84 8 -170
12 l-158 7 7 84 c6 76 4 85 -15 101 -11 9 -31 27 -45 39 -23 22 -101 40 -126
30 -7 -3 4 -6 25 -6 58 -1 44 -21 -15 -21 -40 0 -49 3 -38 11 17 12 14 11 -47
-16 -24 -10 -45 -26 -48 -37 -6 -17 -10 -16 -51 14 -41 29 -44 35 -40 67 3 20
8 73 11 117 6 76 5 83 -16 103 -12 11 -31 23 -41 27 -10 3 -18 11 -18 19 0 40
-176 61 -221 26 -13 -10 -35 -22 -49 -26 -47 -14 -70 -34 -70 -63 0 -28 0 -28
-67 -28 -44 0 -79 -6 -100 -17 l-33 -18 1 28 c0 16 4 55 8 88 6 39 4 67 -3 80
-10 19 -12 25 -15 52 0 6 -11 15 -23 19 -21 6 -21 7 6 26 24 19 26 22 12 37
-13 15 -14 31 -6 107 17 141 10 131 79 126 33 -2 73 0 89 6 29 10 31 8 62 -40
37 -56 100 -101 175 -124 69 -21 182 -29 229 -15 57 15 57 5 0 -21 -34 -15
-70 -22 -116 -22 -38 -1 -68 -2 -68 -4 0 -19 51 -98 87 -135 85 -87 215 -126
330 -99 48 11 49 1 3 -18 -16 -7 -30 -16 -30 -20 0 -4 19 -29 42 -55 44 -49
123 -95 168 -95 15 0 38 -14 60 -37 93 -96 204 -163 273 -163 79 0 110 77 88
219 -6 41 -13 76 -15 78 -1 2 -19 -4 -39 -12 -52 -22 -80 -18 -32 4 100 46
141 158 95 260 l-20 43 -45 -41 c-53 -49 -113 -77 -182 -85 l-48 -6 53 15 c75
21 102 37 149 88 49 53 67 110 60 183 -8 81 -45 142 -118 197 -50 37 -63 34
-83 -17 -17 -43 -94 -142 -103 -132 -3 3 7 17 21 33 98 106 99 287 3 405 -47
58 -165 128 -215 128 -26 0 -27 -2 -24 -42 l3 -43 -19 53 c-35 96 -111 163
-203 178 l-34 6 2 -49 2 -48 -10 41 c-34 141 -175 254 -319 254 -52 0 -135
-22 -164 -43 -19 -14 -18 -15 7 -48 29 -39 66 -116 67 -139 0 -8 -11 8 -24 36
-48 102 -122 161 -236 188 -80 19 -148 19 -219 0z m180 -516 c47 -16 78 -40
79 -60 0 -15 -5 -15 -47 4 -63 28 -221 31 -269 5 -33 -17 -44 -14 -44 12 0 20
34 42 80 52 44 10 156 3 201 -13z m-49 -672 c45 -16 92 -45 84 -53 -2 -3 -24
2 -48 11 -24 9 -61 17 -83 19 l-39 2 -20 -102 c-11 -57 -23 -103 -28 -103 -4
0 -8 48 -8 106 l0 106 -30 -4 c-27 -4 -47 12 -33 26 12 11 168 5 205 -8z m612
-137 c62 -23 88 -46 40 -35 -16 3 -65 9 -110 13 l-81 6 -6 -69 c-4 -38 -7 -94
-8 -124 -1 -75 -9 -95 -32 -77 -17 12 -17 19 -7 80 11 62 11 70 -6 89 -11 11
-34 27 -51 35 -56 23 -40 44 42 54 l50 6 -43 2 c-24 0 -52 -4 -63 -9 -22 -12
-26 2 -5 19 44 36 197 42 280 10z m-88 -131 c-16 -241 -19 -283 -21 -286 -1
-1 -14 3 -29 9 -21 10 -26 18 -22 38 3 14 7 71 11 126 3 55 8 126 11 158 6 53
8 57 31 57 l26 0 -7 -102z m-920 36 c47 -13 165 -82 180 -105 3 -5 -2 -16 -11
-25 -12 -12 -13 -19 -4 -30 13 -16 39 -19 39 -4 0 22 17 8 40 -31 21 -38 21
-43 6 -51 -9 -5 -16 -15 -16 -22 0 -15 27 -29 40 -21 10 6 33 -93 24 -106 -11
-19 -32 -8 -38 22 -10 51 -76 139 -139 186 -33 24 -61 42 -63 40 -2 -1 8 -25
21 -52 24 -49 45 -151 44 -210 0 -20 -6 -8 -18 38 -10 37 -31 86 -47 110 -35
50 -118 102 -173 110 -97 13 -201 -34 -257 -116 -44 -64 -57 -116 -52 -203 6
-83 42 -159 97 -205 20 -16 32 -29 28 -29 -15 0 -83 39 -96 54 -18 22 -34 20
-23 -1 6 -13 4 -23 -9 -35 -17 -16 -19 -14 -48 31 -140 218 -59 517 171 630
98 48 191 56 304 25z m688 -6 c21 -30 20 -61 -3 -89 l-18 -23 -77 34 c-85 37
-93 44 -75 67 20 23 48 32 106 32 43 1 55 -3 67 -21z m-99 -130 c259 -103 240
-93 243 -127 l3 -30 -98 43 c-237 106 -253 114 -247 130 8 21 7 21 99 -16z
m-660 -57 c51 -23 118 -98 133 -149 39 -129 -9 -267 -114 -328 -162 -95 -356
32 -356 231 0 186 181 317 337 246z m1909 -357 c12 -5 16 -21 16 -71 0 -87
-10 -103 -64 -103 -61 0 -70 15 -62 97 4 36 9 70 12 75 6 9 75 11 98 2z
m-1150 -192 c5 -8 -12 -216 -19 -238 -2 -8 -41 1 -114 26 l-111 38 -221 8
c-121 4 -216 10 -212 14 24 21 102 31 158 21 89 -17 104 -14 141 23 28 28 34
42 34 75 l0 41 169 0 c94 0 172 -4 175 -8z m198 -37 l97 -17 -5 -32 c-36 -212
-73 -355 -99 -394 -32 -45 -173 -93 -271 -91 l-49 1 43 15 c85 30 103 78 138
386 15 132 20 156 33 153 9 -3 60 -12 113 -21z m-1542 -125 c118 -6 290 -13
383 -17 92 -3 167 -8 167 -10 0 -2 -15 -17 -32 -34 -18 -17 -28 -28 -21 -25 8
5 10 -3 6 -28 -11 -69 17 -116 68 -116 59 0 92 109 48 164 -26 34 -10 34 22 0
37 -39 34 -112 -5 -153 -32 -34 -77 -41 -108 -17 -25 18 -51 85 -44 112 6 21
2 23 -46 28 -29 3 -154 10 -277 16 l-223 11 -25 29 c-28 34 -81 41 -103 15
-20 -24 -75 -19 -93 8 -21 32 -30 16 -11 -22 10 -20 13 -42 9 -59 -7 -29 -42
-72 -58 -72 -6 0 -2 8 7 19 38 42 28 132 -16 152 -20 8 -19 9 10 5 17 -3 32
-1 32 4 0 5 21 7 48 4 26 -2 144 -9 262 -14z m957 -50 c83 -5 162 -14 175 -19
24 -9 24 -11 16 -78 -4 -37 -10 -73 -12 -79 -2 -6 -61 -26 -131 -44 -79 -21
-121 -36 -113 -42 7 -4 23 -8 36 -8 27 0 254 59 264 69 4 4 13 41 20 84 10 64
15 77 27 72 9 -4 31 -9 49 -12 17 -3 32 -11 32 -17 0 -44 -33 -186 -48 -206
-23 -30 -80 -48 -174 -53 -65 -4 -73 -2 -93 19 -22 23 -35 25 -316 49 -301 25
-458 38 -679 55 -261 21 -250 19 -260 46 -31 82 -20 95 35 40 37 -38 12 -33
315 -56 74 -6 158 -12 185 -15 28 -2 120 -9 205 -15 85 -6 191 -16 235 -22 44
-5 93 -10 108 -10 29 -1 73 33 83 64 4 15 16 18 69 18 83 0 115 14 115 51 l0
27 -92 4 c-66 2 -93 7 -96 17 -17 50 -98 69 -142 33 -31 -25 -79 -17 -108 19
l-24 29 84 -5 c45 -3 151 -10 235 -15z m-777 -120 c314 -22 308 -21 314 -37 4
-9 5 -17 4 -18 -2 -1 -77 4 -168 10 -91 7 -222 16 -292 20 -122 7 -127 8 -117
26 9 17 18 19 67 14 31 -3 118 -9 192 -15z m1253 -268 c-2 -11 0 -42 5 -70 6
-33 6 -54 -1 -61 -5 -5 -6 -26 -2 -47 l7 -38 17 23 c15 20 19 21 30 7 10 -12
9 -20 -3 -44 -13 -26 -14 -32 -1 -42 22 -18 37 -8 51 36 l12 39 1 -32 c1 -18
5 -33 11 -33 17 0 32 42 27 75 -6 39 1 51 18 28 11 -14 13 -12 19 19 3 19 4
43 0 52 -5 12 -2 15 10 10 21 -8 20 -22 -5 -91 -28 -75 -51 -107 -89 -123 -54
-22 -98 21 -124 125 -19 70 -21 166 -4 183 15 15 27 6 21 -16z"/>
<path d="M877 1484 c-97 -30 -167 -134 -167 -248 0 -51 27 -127 50 -141 9 -6
9 -3 1 13 -6 11 -11 42 -11 69 1 149 150 261 277 208 64 -27 100 -73 113 -145
l7 -35 7 37 c20 97 -60 222 -157 246 -56 15 -60 14 -120 -4z"/>
<path d="M1597 913 c-13 -12 -7 -25 9 -19 29 11 54 -12 54 -49 0 -24 -6 -38
-19 -45 -32 -17 -51 -2 -51 41 0 28 -6 42 -22 53 -28 20 -33 20 -52 0 -21 -20
-20 -53 0 -75 15 -16 18 -17 32 -3 8 9 15 29 14 45 0 16 4 27 9 24 14 -9 11
-51 -6 -65 -12 -10 -10 -15 14 -36 36 -30 74 -31 101 -2 27 29 27 91 0 118
-19 19 -69 27 -83 13z"/>
<path d="M3080 1138 c0 -13 -9 -138 -20 -278 -11 -140 -20 -256 -20 -256 0 -1
-30 5 -67 13 -89 19 -453 95 -667 139 -93 19 -170 33 -171 32 -4 -5 -25 -82
-22 -83 3 -2 794 -123 860 -132 26 -3 50 -10 54 -15 3 -6 -6 -8 -23 -4 -37 7
-264 39 -512 71 -106 13 -231 30 -277 36 -82 12 -115 9 -115 -10 0 -11 -9 -10
533 -71 196 -22 366 -40 377 -40 17 0 20 -7 20 -49 0 -42 3 -50 23 -55 21 -6
21 -7 4 -17 -55 -32 -78 -209 -37 -277 16 -27 26 -33 48 -30 21 2 32 13 50 49
29 59 33 188 8 237 l-16 30 33 8 c31 7 30 8 -22 16 -30 5 -56 10 -57 11 -3 3
12 263 32 565 9 137 20 104 13 -40 -5 -116 -5 -124 15 -142 21 -18 21 -18 27
10 4 16 7 73 8 127 1 81 4 97 17 97 14 0 15 -17 10 -147 -3 -92 -2 -133 3
-108 5 22 10 86 12 143 l4 103 -62 45 c-59 43 -63 44 -63 22z m34 -739 c18
-26 17 -193 -2 -226 -18 -32 -38 -28 -51 8 -23 66 -4 185 32 198 15 6 17 10 8
15 -17 11 -49 -20 -56 -56 -4 -16 -9 -27 -12 -24 -8 8 15 67 34 88 21 23 29
23 47 -3z"/>
<path d="M3208 865 c-2 -46 1 -70 10 -79 12 -11 12 -39 1 -165 -7 -83 -10
-153 -7 -156 5 -6 279 -55 303 -55 9 0 13 30 14 108 2 151 11 244 25 239 15
-5 18 -88 9 -234 -6 -89 -5 -123 3 -123 7 0 13 53 17 163 3 89 8 169 11 177 4
11 -36 39 -144 103 -127 74 -155 87 -193 87 l-45 0 -4 -65z"/>
<path d="M2146 874 c-3 -8 -6 -28 -6 -43 0 -27 2 -28 108 -50 59 -12 117 -25
130 -28 19 -4 22 -1 22 26 0 36 7 37 95 13 56 -16 60 -19 57 -44 -3 -29 0 -32
41 -42 24 -6 27 -3 27 17 0 13 2 26 5 29 3 3 38 -2 78 -12 69 -15 72 -17 69
-43 -1 -15 1 -27 5 -27 4 0 18 -3 31 -6 20 -6 22 -3 22 29 0 25 -5 37 -17 41
-21 6 -506 120 -578 136 -27 6 -57 13 -66 16 -10 2 -19 -2 -23 -12z"/>
<path d="M3001 473 c-1 -20 -7 -23 -41 -23 -37 0 -39 -2 -45 -37 -21 -126 -17
-117 -63 -124 -48 -6 -47 -5 -56 -41 l-6 -28 93 0 94 0 7 102 c4 56 12 108 17
115 6 6 9 22 6 35 l-4 23 -2 -22z"/>
<path d="M3220 419 c0 -9 -7 -22 -16 -30 -55 -46 -62 -217 -10 -251 49 -33 91
45 84 156 -3 39 -8 79 -12 88 -7 15 -3 16 31 11 21 -3 41 -10 44 -16 4 -5 12
-6 18 -3 30 19 42 -157 13 -186 -35 -35 -52 95 -19 145 10 15 13 27 8 27 -6 0
-18 -12 -26 -27 -15 -26 -14 -16 1 22 3 8 2 15 -3 15 -35 0 -46 -161 -15 -201
44 -53 87 23 80 139 -4 61 -3 72 9 68 8 -4 22 -6 30 -6 12 0 13 -3 4 -14 -6
-7 -16 -38 -21 -69 -9 -45 -8 -63 4 -91 16 -38 44 -48 65 -23 17 22 31 111 22
143 -7 23 -9 17 -9 -33 0 -34 -6 -71 -13 -84 -11 -22 -12 -22 -25 -4 -26 35
-14 125 20 147 8 6 7 8 -1 8 -6 0 -19 -10 -27 -22 -18 -25 -22 -17 -6 12 7 12
21 18 45 18 36 0 53 7 43 17 -2 3 -75 18 -161 33 -143 26 -157 27 -157 11z"/>
</g>
</svg>
